#VRML V2.0 utf8

Shape {
  appearance Appearance {
    material Material {
      diffuseColor 0.9490 0.7608 0.1804
      specularColor 0.7608 0.6078 0.1451
      ambientIntensity 0.2
      transparency 0.0000
      shininess 0.5
    }
  }
  geometry IndexedFaceSet {
    ccw TRUE
    solid FALSE
    coord DEF co Coordinate {
      point [
        0.137795 0.137795 -0.517645,
        0.137795 0.137795 0.196850,
        0.137795 0.044096 -0.455229,
        0.137795 0.044096 -0.505642,
        0.137795 0.033294 -0.505642,
        0.137795 -0.054929 -0.517645,
        0.137795 0.028193 -0.436024,
        0.137795 -0.054329 -0.455229,
        0.137795 -0.054929 -0.403154,
        0.137795 -0.054329 -0.354403,
        0.137795 -0.054329 -0.303991,
        0.137795 -0.045932 -0.379356,
        0.137795 -0.038149 -0.371963,
        0.137795 -0.038425 -0.436024,
        0.137795 0.032940 -0.424938,
        0.137795 -0.039402 -0.434260,
        0.137795 0.034494 -0.412974,
        0.137795 0.033406 -0.403283,
        0.137795 -0.009917 -0.503241,
        0.137795 0.000885 -0.503241,
        0.137795 0.000885 -0.468433,
        0.137795 0.033294 -0.468433,
        0.137795 0.044096 -0.303991,
        0.137795 0.044096 -0.317194,
        0.137795 0.018172 -0.368000,
        0.137795 0.027375 -0.373769,
        0.137795 0.035921 -0.382655,
        0.137795 0.041302 -0.392004,
        0.137795 -0.049228 -0.436024,
        0.137795 -0.043526 -0.354403,
        0.137795 -0.028790 -0.366719,
        0.137795 -0.043526 -0.317194,
        0.137795 0.044490 -0.402976,
        0.137795 0.045297 -0.412862,
        0.137795 0.044484 -0.424644,
        0.137795 0.041396 -0.436024,
        0.137795 -0.054271 -0.396813,
        0.137795 -0.050988 -0.387273,
        0.137795 0.030747 -0.395916,
        0.137795 0.026189 -0.389103,
        0.137795 0.019628 -0.383160,
        0.137795 -0.006167 -0.376009,
        0.137795 -0.016821 -0.377006,
        0.137795 -0.025287 -0.379680,
        0.137795 -0.043696 -0.401581,
        0.137795 -0.044726 -0.410761,
        0.137795 -0.041056 -0.394409,
        0.137795 -0.036985 -0.388369,
        0.137795 -0.032112 -0.383750,
        0.137795 -0.043276 -0.423826,
        0.137795 0.012028 -0.379102,
        0.137795 0.001492 -0.376478,
        0.137795 -0.009917 -0.468433,
        0.137795 -0.043526 -0.468433,
        0.137795 -0.043526 -0.508043,
        0.137795 -0.054329 -0.508043,
        0.137795 -0.018372 -0.363757,
        0.137795 -0.006973 -0.362806,
        0.137795 0.007020 -0.364221,
        0.137795 -0.054929 -0.415587,
        0.137795 -0.055483 -0.411633,
        0.137795 -0.137795 -0.517645,
        0.137795 -0.055529 -0.408942,
        0.137795 -0.054929 0.196850,
        0.137795 -0.137795 0.196850,
        0.137795 0.044096 -0.650879,
        0.137795 0.044096 -0.664083,
        0.137795 -0.054329 -0.554011,
        0.137795 -0.054329 -0.527248,
        0.137795 0.044096 -0.527248,
        0.137795 -0.054329 -0.688089,
        0.137795 -0.054329 -0.702493,
        0.137795 -0.054929 -1.023622,
        0.137795 0.137795 -1.023622,
        0.137795 0.044096 -0.555024,
        0.137795 0.042576 -0.569243,
        0.137795 0.038533 -0.580759,
        0.137795 0.031354 -0.591472,
        0.137795 -0.054329 -0.613670,
        0.137795 -0.027352 -0.601553,
        0.137795 -0.036156 -0.595909,
        0.137795 0.031263 -0.591575,
        0.137795 0.023545 -0.598535,
        0.137795 0.015080 -0.603109,
        0.137795 -0.043913 -0.587807,
        0.137795 -0.049885 -0.577530,
        0.137795 -0.053266 -0.566189,
        0.137795 -0.054329 -0.628073,
        0.137795 -0.026722 -0.637470,
        0.137795 -0.026722 -0.678130,
        0.137795 0.005383 -0.605753,
        0.137795 -0.003878 -0.606468,
        0.137795 -0.017050 -0.605087,
        0.137795 -0.053535 -0.425533,
        0.137795 -0.137795 -1.023622,
      ]
    }
    coordIndex [
      0, 1, 2, -1,
      3, 4, 5, -1,
      6, 7, 2, -1,
      8, 9, 10, -1,
      11, 12, 9, -1,
      13, 14, 15, -1,
      15, 14, 16, -1,
      15, 16, 17, -1,
      18, 5, 19, -1,
      19, 5, 4, -1,
      19, 4, 20, -1,
      20, 4, 21, -1,
      1, 22, 23, -1,
      24, 25, 23, -1,
      23, 25, 26, -1,
      23, 26, 27, -1,
      28, 7, 13, -1,
      13, 7, 6, -1,
      13, 6, 14, -1,
      9, 12, 29, -1,
      29, 12, 30, -1,
      29, 30, 31, -1,
      27, 32, 23, -1,
      23, 32, 33, -1,
      23, 33, 1, -1,
      1, 33, 34, -1,
      1, 34, 2, -1,
      2, 34, 35, -1,
      2, 35, 6, -1,
      8, 36, 9, -1,
      9, 36, 37, -1,
      9, 37, 11, -1,
      17, 38, 15, -1,
      15, 38, 39, -1,
      15, 39, 40, -1,
      41, 42, 15, -1,
      15, 42, 43, -1,
      44, 45, 46, -1,
      46, 45, 47, -1,
      43, 48, 15, -1,
      15, 48, 47, -1,
      15, 47, 49, -1,
      49, 47, 45, -1,
      40, 50, 15, -1,
      15, 50, 51, -1,
      15, 51, 41, -1,
      52, 53, 18, -1,
      18, 53, 54, -1,
      18, 54, 5, -1,
      5, 54, 55, -1,
      5, 55, 7, -1,
      30, 56, 31, -1,
      31, 56, 57, -1,
      31, 57, 23, -1,
      23, 57, 58, -1,
      23, 58, 24, -1,
      59, 60, 61, -1,
      61, 60, 62, -1,
      61, 62, 8, -1,
      22, 1, 10, -1,
      10, 1, 63, -1,
      10, 63, 8, -1,
      8, 63, 64, -1,
      8, 64, 61, -1,
      0, 65, 66, -1,
      67, 68, 5, -1,
      2, 3, 0, -1,
      0, 3, 5, -1,
      0, 5, 69, -1,
      69, 5, 68, -1,
      70, 5, 71, -1,
      71, 5, 72, -1,
      71, 72, 66, -1,
      66, 72, 73, -1,
      66, 73, 0, -1,
      69, 74, 0, -1,
      0, 74, 75, -1,
      0, 75, 65, -1,
      65, 75, 76, -1,
      65, 76, 77, -1,
      78, 79, 80, -1,
      77, 81, 65, -1,
      65, 81, 82, -1,
      65, 82, 83, -1,
      80, 84, 78, -1,
      78, 84, 85, -1,
      78, 85, 86, -1,
      86, 67, 78, -1,
      78, 67, 5, -1,
      78, 5, 87, -1,
      87, 5, 70, -1,
      87, 70, 88, -1,
      88, 70, 89, -1,
      83, 90, 65, -1,
      65, 90, 91, -1,
      65, 91, 78, -1,
      78, 91, 92, -1,
      78, 92, 79, -1,
      28, 93, 7, -1,
      7, 93, 59, -1,
      7, 59, 5, -1,
      5, 59, 61, -1,
      5, 61, 72, -1,
      72, 61, 94, -1,
    ]
  }
}

Shape {
  appearance Appearance {
    material Material {
      diffuseColor 0.1765 0.1765 0.1765
      specularColor 0.0510 0.0510 0.0510
      ambientIntensity 0.2
      transparency 0.0000
      shininess 0.5
    }
  }
  geometry IndexedFaceSet {
    ccw TRUE
    solid FALSE
    coord DEF co Coordinate {
      point [
        0.137795 0.137795 0.196850,
        0.137795 -0.054929 0.196850,
        0.137795 -0.137795 0.196850,
        -0.137795 -0.137795 0.196850,
        0.500000 -0.263780 0.196850,
        0.500000 0.263780 0.196850,
        -0.500000 0.263780 0.196850,
        -0.137795 0.137795 0.196850,
        -0.500000 -0.263780 0.196850,
        -0.381890 -0.500000 0.011811,
        -0.381890 -0.500000 0.984252,
        -0.500000 -0.381890 0.011811,
        -0.500000 -0.381890 0.984252,
        0.381890 -0.500000 0.011811,
        0.381890 -0.500000 0.984252,
        0.500000 -0.381890 0.011811,
        0.500000 -0.381890 0.984252,
        0.500000 -0.263780 0.011811,
        0.500000 0.263780 0.011811,
        0.500000 0.381890 0.011811,
        0.500000 0.381890 0.984252,
        0.381890 0.500000 0.011811,
        0.381890 0.500000 0.984252,
        -0.381890 0.500000 0.011811,
        -0.381890 0.500000 0.984252,
        -0.500000 0.381890 0.011811,
        -0.500000 0.381890 0.984252,
        -0.500000 0.263780 0.011811,
        -0.500000 -0.263780 0.011811,
        0.137795 -0.137795 0.984252,
        -0.137795 -0.137795 0.984252,
        -0.137795 0.137795 0.984252,
        0.137795 0.137795 0.984252,
      ]
    }
    coordIndex [
      3, 2, 4, -1,
      4, 2, 1, -1,
      4, 1, 5, -1,
      5, 1, 0, -1,
      5, 0, 6, -1,
      6, 0, 7, -1,
      6, 7, 8, -1,
      8, 7, 3, -1,
      8, 3, 4, -1,
      9, 10, 11, -1,
      11, 10, 12, -1,
      13, 14, 9, -1,
      9, 14, 10, -1,
      15, 16, 13, -1,
      13, 16, 14, -1,
      15, 17, 4, -1,
      18, 19, 5, -1,
      5, 19, 20, -1,
      5, 20, 4, -1,
      4, 20, 16, -1,
      4, 16, 15, -1,
      21, 22, 19, -1,
      19, 22, 20, -1,
      23, 24, 21, -1,
      21, 24, 22, -1,
      25, 26, 23, -1,
      23, 26, 24, -1,
      25, 27, 6, -1,
      28, 11, 8, -1,
      8, 11, 12, -1,
      8, 12, 6, -1,
      6, 12, 26, -1,
      6, 26, 25, -1,
      26, 12, 10, -1,
      22, 24, 26, -1,
      14, 29, 10, -1,
      10, 29, 30, -1,
      10, 30, 26, -1,
      26, 30, 31, -1,
      26, 31, 22, -1,
      22, 31, 20, -1,
      14, 16, 29, -1,
      29, 16, 20, -1,
      29, 20, 32, -1,
      32, 20, 31, -1,
      6, 27, 5, -1,
      5, 27, 18, -1,
      27, 25, 23, -1,
      23, 21, 27, -1,
      27, 21, 19, -1,
      27, 19, 18, -1,
      4, 17, 8, -1,
      8, 17, 28, -1,
      11, 28, 9, -1,
      9, 28, 17, -1,
      9, 17, 13, -1,
      13, 17, 15, -1,
    ]
  }
}

Shape {
  appearance Appearance {
    material Material {
      diffuseColor 0.9490 0.7608 0.1804
      specularColor 0.7608 0.6078 0.1451
      ambientIntensity 0.2
      transparency 0.0000
      shininess 0.5
    }
  }
  geometry IndexedFaceSet {
    ccw TRUE
    solid FALSE
    coord DEF co Coordinate {
      point [
        0.137795 0.137795 -0.517645,
        0.137795 0.137795 0.196850,
        0.137795 -0.137795 -0.517645,
        0.137795 -0.137795 0.196850,
        0.137795 -0.054929 -1.023622,
        0.137795 0.137795 -1.023622,
        0.137795 -0.137795 -1.023622,
        -0.137795 -0.137795 0.196850,
        -0.137795 0.137795 0.196850,
        0.137795 -0.137795 0.984252,
        -0.137795 -0.137795 0.984252,
        -0.137795 0.137795 0.984252,
        0.137795 0.137795 0.984252,
        0.098425 -0.098425 3.346457,
        0.098425 0.098425 3.346457,
        -0.098425 -0.098425 3.346457,
        -0.098425 0.098425 3.346457,
        0.137795 0.137795 3.188976,
        -0.137795 0.137795 3.188976,
        -0.137795 -0.137795 3.188976,
        0.137795 -0.137795 3.188976,
        -0.137795 -0.137795 -1.023622,
        -0.137795 0.137795 -1.023622,
        0.098425 0.098425 -1.181102,
        0.098425 -0.098425 -1.181102,
        -0.098425 0.098425 -1.181102,
        -0.098425 -0.098425 -1.181102,
      ]
    }
    coordIndex [
      13, 14, 15, -1,
      15, 14, 16, -1,
      17, 12, 18, -1,
      18, 12, 11, -1,
      18, 11, 19, -1,
      19, 11, 10, -1,
      19, 10, 20, -1,
      20, 10, 9, -1,
      20, 9, 17, -1,
      17, 9, 12, -1,
      3, 7, 2, -1,
      2, 7, 21, -1,
      2, 21, 6, -1,
      21, 7, 22, -1,
      22, 7, 8, -1,
      8, 1, 22, -1,
      22, 1, 0, -1,
      22, 0, 5, -1,
      23, 24, 25, -1,
      25, 24, 26, -1,
      24, 6, 26, -1,
      26, 6, 21, -1,
      6, 24, 4, -1,
      4, 24, 23, -1,
      4, 23, 5, -1,
      22, 25, 21, -1,
      21, 25, 26, -1,
      25, 22, 23, -1,
      23, 22, 5, -1,
      18, 16, 17, -1,
      17, 16, 14, -1,
      19, 15, 18, -1,
      18, 15, 16, -1,
      13, 20, 14, -1,
      14, 20, 17, -1,
      20, 13, 19, -1,
      19, 13, 15, -1,
    ]
  }
}

Shape {
  appearance Appearance {
    material Material {
      diffuseColor 0.0000 0.0000 0.0000
      specularColor 0.0000 0.0000 0.0000
      ambientIntensity 0.2
      transparency 0.0000
      shininess 0.5
    }
  }
  geometry IndexedFaceSet {
    ccw TRUE
    solid FALSE
    coord DEF co Coordinate {
      point [
        0.137795 0.044096 -0.455229,
        0.137795 0.044096 -0.505642,
        0.137795 0.033294 -0.505642,
        0.137795 0.028193 -0.436024,
        0.137795 -0.054329 -0.455229,
        0.137795 -0.054929 -0.403154,
        0.137795 -0.054329 -0.354403,
        0.137795 -0.054329 -0.303991,
        0.137795 -0.045932 -0.379356,
        0.137795 -0.038149 -0.371963,
        0.137795 -0.038425 -0.436024,
        0.137795 0.032940 -0.424938,
        0.137795 -0.039402 -0.434260,
        0.137795 0.034494 -0.412974,
        0.137795 0.033406 -0.403283,
        0.137795 -0.009917 -0.503241,
        0.137795 0.000885 -0.503241,
        0.137795 0.000885 -0.468433,
        0.137795 0.033294 -0.468433,
        0.137795 0.044096 -0.303991,
        0.137795 0.044096 -0.317194,
        0.137795 0.018172 -0.368000,
        0.137795 0.027375 -0.373769,
        0.137795 0.035921 -0.382655,
        0.137795 0.041302 -0.392004,
        0.137795 -0.049228 -0.436024,
        0.137795 -0.043526 -0.354403,
        0.137795 -0.028790 -0.366719,
        0.137795 -0.043526 -0.317194,
        0.137795 0.044490 -0.402976,
        0.137795 0.045297 -0.412862,
        0.137795 0.044484 -0.424644,
        0.137795 0.041396 -0.436024,
        0.137795 -0.054271 -0.396813,
        0.137795 -0.050988 -0.387273,
        0.137795 0.030747 -0.395916,
        0.137795 0.026189 -0.389103,
        0.137795 0.019628 -0.383160,
        0.137795 -0.006167 -0.376009,
        0.137795 -0.016821 -0.377006,
        0.137795 -0.025287 -0.379680,
        0.137795 -0.043696 -0.401581,
        0.137795 -0.044726 -0.410761,
        0.137795 -0.041056 -0.394409,
        0.137795 -0.036985 -0.388369,
        0.137795 -0.032112 -0.383750,
        0.137795 -0.043276 -0.423826,
        0.137795 0.012028 -0.379102,
        0.137795 0.001492 -0.376478,
        0.137795 -0.009917 -0.468433,
        0.137795 -0.043526 -0.468433,
        0.137795 -0.043526 -0.508043,
        0.137795 -0.054329 -0.508043,
        0.137795 -0.018372 -0.363757,
        0.137795 -0.006973 -0.362806,
        0.137795 0.007020 -0.364221,
        0.137795 -0.054929 -0.415587,
        0.137795 -0.055483 -0.411633,
        0.137795 -0.055529 -0.408942,
        0.137795 0.044096 -0.650879,
        0.137795 0.044096 -0.664083,
        0.137795 -0.054329 -0.554011,
        0.137795 -0.054329 -0.527248,
        0.137795 0.044096 -0.527248,
        0.137795 -0.054329 -0.688089,
        0.137795 -0.054329 -0.702493,
        0.137795 0.044096 -0.555024,
        0.137795 0.042576 -0.569243,
        0.137795 0.038533 -0.580759,
        0.137795 0.031354 -0.591472,
        0.137795 -0.054329 -0.613670,
        0.137795 -0.027352 -0.601553,
        0.137795 -0.036156 -0.595909,
        0.137795 0.031263 -0.591575,
        0.137795 0.023545 -0.598535,
        0.137795 0.015080 -0.603109,
        0.137795 -0.043913 -0.587807,
        0.137795 -0.049885 -0.577530,
        0.137795 -0.053266 -0.566189,
        0.137795 -0.054329 -0.628073,
        0.137795 -0.026722 -0.637470,
        0.137795 -0.026722 -0.678130,
        0.137795 0.005383 -0.605753,
        0.137795 -0.003878 -0.606468,
        0.137795 -0.017050 -0.605087,
        0.137795 -0.053535 -0.425533,
        0.133858 0.044096 -0.664083,
        0.133858 -0.054329 -0.702493,
        0.133858 -0.054329 -0.688089,
        0.133858 -0.026722 -0.678130,
        0.133858 -0.026722 -0.637470,
        0.133858 -0.054329 -0.628073,
        0.133858 -0.054329 -0.613670,
        0.133858 0.044096 -0.650879,
        0.133858 -0.015919 -0.640789,
        0.133858 -0.015919 -0.673704,
        0.133858 0.025192 -0.655474,
        0.133858 0.028605 -0.656421,
        0.133858 0.032093 -0.657050,
        0.133858 0.032093 -0.657369,
        0.133858 0.028616 -0.658011,
        0.133858 0.025192 -0.658887,
        0.137795 -0.015919 -0.640789,
        0.137795 -0.015919 -0.673704,
        0.137795 0.025192 -0.655474,
        0.137795 0.028605 -0.656421,
        0.137795 0.032093 -0.657050,
        0.137795 0.032093 -0.657369,
        0.137795 0.028616 -0.658011,
        0.137795 0.025192 -0.658887,
        0.133858 -0.054329 -0.554011,
        0.133858 -0.054329 -0.527248,
        0.133858 0.044096 -0.527248,
        0.133858 0.044096 -0.555024,
        0.133858 -0.003878 -0.606468,
        0.133858 0.005383 -0.605753,
        0.133858 0.015080 -0.603109,
        0.133858 0.023545 -0.598535,
        0.133858 0.031263 -0.591575,
        0.133858 0.031354 -0.591472,
        0.133858 0.038533 -0.580759,
        0.133858 0.042576 -0.569243,
        0.133858 -0.053266 -0.566189,
        0.133858 -0.049885 -0.577530,
        0.133858 -0.043913 -0.587807,
        0.133858 -0.036156 -0.595909,
        0.133858 -0.027352 -0.601553,
        0.133858 -0.017050 -0.605087,
        0.133858 0.019491 -0.586711,
        0.133858 0.024568 -0.581930,
        0.133858 0.029212 -0.574741,
        0.133858 0.032056 -0.566617,
        0.133858 0.033294 -0.554967,
        0.133858 0.033294 -0.540451,
        0.133858 -0.043526 -0.540451,
        0.133858 -0.043526 -0.554423,
        0.133858 -0.042559 -0.564807,
        0.133858 -0.039974 -0.573090,
        0.133858 -0.035988 -0.579802,
        0.133858 -0.030535 -0.585323,
        0.133858 -0.023750 -0.589474,
        0.133858 -0.014498 -0.592361,
        0.133858 -0.004159 -0.593265,
        0.133858 0.005636 -0.592428,
        0.133858 0.013421 -0.590131,
        0.137795 0.033294 -0.554967,
        0.137795 0.033294 -0.540451,
        0.137795 0.032056 -0.566617,
        0.137795 0.029212 -0.574741,
        0.137795 0.024568 -0.581930,
        0.137795 0.019491 -0.586711,
        0.137795 0.013421 -0.590131,
        0.137795 0.005636 -0.592428,
        0.137795 -0.004159 -0.593265,
        0.137795 -0.014498 -0.592361,
        0.137795 -0.023750 -0.589474,
        0.137795 -0.030535 -0.585323,
        0.137795 -0.035988 -0.579802,
        0.137795 -0.039974 -0.573090,
        0.137795 -0.042559 -0.564807,
        0.137795 -0.043526 -0.554423,
        0.137795 -0.043526 -0.540451,
        0.133858 -0.043526 -0.508043,
        0.133858 -0.054329 -0.508043,
        0.133858 -0.054329 -0.455229,
        0.133858 0.044096 -0.455229,
        0.133858 0.044096 -0.505642,
        0.133858 0.033294 -0.505642,
        0.133858 0.033294 -0.468433,
        0.133858 0.000885 -0.468433,
        0.133858 0.000885 -0.503241,
        0.133858 -0.009917 -0.503241,
        0.133858 -0.009917 -0.468433,
        0.133858 -0.043526 -0.468433,
        0.133858 -0.038425 -0.436024,
        0.133858 -0.049228 -0.436024,
        0.133858 -0.053535 -0.425533,
        0.133858 -0.055529 -0.408942,
        0.133858 -0.055483 -0.411633,
        0.133858 -0.006973 -0.362806,
        0.133858 -0.018372 -0.363757,
        0.133858 -0.028790 -0.366719,
        0.133858 -0.038149 -0.371963,
        0.133858 -0.045932 -0.379356,
        0.133858 -0.050988 -0.387273,
        0.133858 -0.054271 -0.396813,
        0.133858 0.045297 -0.412862,
        0.133858 0.044490 -0.402976,
        0.133858 0.041302 -0.392004,
        0.133858 0.035921 -0.382655,
        0.133858 0.027375 -0.373769,
        0.133858 0.018172 -0.368000,
        0.133858 0.007020 -0.364221,
        0.133858 0.041396 -0.436024,
        0.133858 0.044484 -0.424644,
        0.133858 0.028193 -0.436024,
        0.133858 0.034494 -0.412974,
        0.133858 0.032940 -0.424938,
        0.133858 -0.006167 -0.376009,
        0.133858 0.001492 -0.376478,
        0.133858 0.012028 -0.379102,
        0.133858 0.019628 -0.383160,
        0.133858 0.026189 -0.389103,
        0.133858 0.030747 -0.395916,
        0.133858 0.033406 -0.403283,
        0.133858 -0.044726 -0.410761,
        0.133858 -0.043696 -0.401581,
        0.133858 -0.041056 -0.394409,
        0.133858 -0.036985 -0.388369,
        0.133858 -0.032112 -0.383750,
        0.133858 -0.025287 -0.379680,
        0.133858 -0.016821 -0.377006,
        0.133858 -0.039402 -0.434260,
        0.133858 -0.043276 -0.423826,
        0.133858 -0.043526 -0.354403,
        0.133858 -0.054329 -0.354403,
        0.133858 -0.054329 -0.303991,
        0.133858 0.044096 -0.303991,
        0.133858 0.044096 -0.317194,
        0.133858 -0.043526 -0.317194,
      ]
    }
    coordIndex [
      86, 87, 60, -1,
      60, 87, 65, -1,
      87, 88, 65, -1,
      65, 88, 64, -1,
      88, 89, 64, -1,
      64, 89, 81, -1,
      89, 90, 81, -1,
      81, 90, 80, -1,
      90, 91, 80, -1,
      80, 91, 79, -1,
      91, 92, 79, -1,
      79, 92, 70, -1,
      92, 93, 70, -1,
      70, 93, 59, -1,
      93, 86, 59, -1,
      59, 86, 60, -1,
      94, 90, 95, -1,
      95, 90, 89, -1,
      96, 93, 94, -1,
      94, 93, 92, -1,
      94, 92, 90, -1,
      90, 92, 91, -1,
      96, 97, 93, -1,
      93, 97, 98, -1,
      93, 98, 86, -1,
      86, 98, 99, -1,
      86, 99, 100, -1,
      100, 101, 86, -1,
      86, 101, 95, -1,
      86, 95, 87, -1,
      87, 95, 89, -1,
      87, 89, 88, -1,
      94, 95, 102, -1,
      102, 95, 103, -1,
      96, 94, 104, -1,
      104, 94, 102, -1,
      96, 104, 105, -1,
      96, 105, 97, -1,
      97, 105, 106, -1,
      97, 106, 98, -1,
      99, 98, 107, -1,
      107, 98, 106, -1,
      99, 107, 108, -1,
      99, 108, 100, -1,
      100, 108, 109, -1,
      100, 109, 101, -1,
      95, 101, 103, -1,
      103, 101, 109, -1,
      110, 111, 61, -1,
      61, 111, 62, -1,
      111, 112, 62, -1,
      62, 112, 63, -1,
      112, 113, 63, -1,
      63, 113, 66, -1,
      114, 83, 82, -1,
      114, 82, 115, -1,
      115, 82, 75, -1,
      115, 75, 116, -1,
      116, 75, 74, -1,
      116, 74, 117, -1,
      117, 74, 73, -1,
      117, 73, 118, -1,
      118, 73, 69, -1,
      118, 69, 119, -1,
      119, 69, 68, -1,
      119, 68, 120, -1,
      120, 68, 67, -1,
      120, 67, 121, -1,
      121, 67, 66, -1,
      121, 66, 113, -1,
      110, 61, 78, -1,
      110, 78, 122, -1,
      122, 78, 77, -1,
      122, 77, 123, -1,
      123, 77, 76, -1,
      123, 76, 124, -1,
      124, 76, 72, -1,
      124, 72, 125, -1,
      125, 72, 71, -1,
      125, 71, 126, -1,
      126, 71, 84, -1,
      126, 84, 127, -1,
      127, 84, 83, -1,
      127, 83, 114, -1,
      116, 117, 128, -1,
      128, 117, 118, -1,
      128, 118, 129, -1,
      129, 118, 119, -1,
      129, 119, 130, -1,
      130, 119, 120, -1,
      130, 120, 131, -1,
      131, 120, 121, -1,
      131, 121, 132, -1,
      132, 121, 113, -1,
      132, 113, 133, -1,
      133, 113, 112, -1,
      133, 112, 134, -1,
      134, 112, 111, -1,
      134, 111, 135, -1,
      135, 111, 110, -1,
      135, 110, 136, -1,
      136, 110, 122, -1,
      136, 122, 137, -1,
      137, 122, 123, -1,
      137, 123, 138, -1,
      138, 123, 124, -1,
      138, 124, 139, -1,
      139, 124, 125, -1,
      139, 125, 140, -1,
      140, 125, 126, -1,
      140, 126, 141, -1,
      141, 126, 127, -1,
      141, 127, 142, -1,
      142, 127, 114, -1,
      142, 114, 143, -1,
      143, 114, 115, -1,
      143, 115, 144, -1,
      144, 115, 116, -1,
      144, 116, 128, -1,
      132, 133, 145, -1,
      145, 133, 146, -1,
      132, 145, 147, -1,
      132, 147, 131, -1,
      131, 147, 148, -1,
      131, 148, 130, -1,
      130, 148, 149, -1,
      130, 149, 129, -1,
      129, 149, 150, -1,
      129, 150, 128, -1,
      128, 150, 151, -1,
      128, 151, 144, -1,
      144, 151, 152, -1,
      144, 152, 143, -1,
      143, 152, 153, -1,
      143, 153, 142, -1,
      142, 153, 154, -1,
      142, 154, 141, -1,
      141, 154, 155, -1,
      141, 155, 140, -1,
      140, 155, 156, -1,
      140, 156, 139, -1,
      139, 156, 157, -1,
      139, 157, 138, -1,
      138, 157, 158, -1,
      138, 158, 137, -1,
      137, 158, 159, -1,
      137, 159, 136, -1,
      136, 159, 160, -1,
      136, 160, 135, -1,
      134, 135, 161, -1,
      161, 135, 160, -1,
      133, 134, 146, -1,
      146, 134, 161, -1,
      162, 163, 51, -1,
      51, 163, 52, -1,
      163, 164, 52, -1,
      52, 164, 4, -1,
      164, 165, 4, -1,
      4, 165, 0, -1,
      165, 166, 0, -1,
      0, 166, 1, -1,
      166, 167, 1, -1,
      1, 167, 2, -1,
      167, 168, 2, -1,
      2, 168, 18, -1,
      168, 169, 18, -1,
      18, 169, 17, -1,
      169, 170, 17, -1,
      17, 170, 16, -1,
      170, 171, 16, -1,
      16, 171, 15, -1,
      171, 172, 15, -1,
      15, 172, 49, -1,
      172, 173, 49, -1,
      49, 173, 50, -1,
      173, 162, 50, -1,
      50, 162, 51, -1,
      164, 163, 162, -1,
      162, 173, 164, -1,
      164, 173, 172, -1,
      164, 172, 165, -1,
      167, 166, 168, -1,
      168, 166, 165, -1,
      168, 165, 169, -1,
      169, 165, 172, -1,
      169, 172, 170, -1,
      170, 172, 171, -1,
      174, 175, 10, -1,
      10, 175, 25, -1,
      25, 175, 176, -1,
      177, 58, 57, -1,
      177, 57, 178, -1,
      178, 57, 56, -1,
      178, 56, 176, -1,
      176, 56, 85, -1,
      176, 85, 25, -1,
      179, 54, 53, -1,
      179, 53, 180, -1,
      180, 53, 27, -1,
      180, 27, 181, -1,
      181, 27, 9, -1,
      181, 9, 182, -1,
      182, 9, 8, -1,
      182, 8, 183, -1,
      183, 8, 34, -1,
      183, 34, 184, -1,
      184, 34, 33, -1,
      184, 33, 185, -1,
      185, 33, 177, -1,
      177, 33, 5, -1,
      177, 5, 58, -1,
      186, 30, 29, -1,
      186, 29, 187, -1,
      187, 29, 24, -1,
      187, 24, 188, -1,
      188, 24, 23, -1,
      188, 23, 189, -1,
      189, 23, 22, -1,
      189, 22, 190, -1,
      190, 22, 21, -1,
      190, 21, 191, -1,
      191, 21, 55, -1,
      191, 55, 192, -1,
      192, 55, 54, -1,
      192, 54, 179, -1,
      193, 32, 31, -1,
      193, 31, 194, -1,
      194, 31, 30, -1,
      194, 30, 186, -1,
      193, 195, 32, -1,
      32, 195, 3, -1,
      196, 13, 11, -1,
      196, 11, 197, -1,
      197, 11, 3, -1,
      197, 3, 195, -1,
      198, 38, 48, -1,
      198, 48, 199, -1,
      199, 48, 47, -1,
      199, 47, 200, -1,
      200, 47, 37, -1,
      200, 37, 201, -1,
      201, 37, 36, -1,
      201, 36, 202, -1,
      202, 36, 35, -1,
      202, 35, 203, -1,
      203, 35, 14, -1,
      203, 14, 204, -1,
      204, 14, 13, -1,
      204, 13, 196, -1,
      205, 42, 41, -1,
      205, 41, 206, -1,
      206, 41, 43, -1,
      206, 43, 207, -1,
      207, 43, 44, -1,
      207, 44, 208, -1,
      208, 44, 45, -1,
      208, 45, 209, -1,
      209, 45, 40, -1,
      209, 40, 210, -1,
      210, 40, 39, -1,
      210, 39, 211, -1,
      211, 39, 38, -1,
      211, 38, 198, -1,
      174, 10, 12, -1,
      174, 12, 212, -1,
      212, 12, 46, -1,
      212, 46, 213, -1,
      213, 46, 42, -1,
      213, 42, 205, -1,
      206, 177, 205, -1,
      205, 177, 178, -1,
      205, 178, 213, -1,
      213, 178, 176, -1,
      213, 176, 212, -1,
      212, 176, 175, -1,
      212, 175, 174, -1,
      195, 193, 197, -1,
      197, 193, 194, -1,
      197, 194, 196, -1,
      196, 194, 186, -1,
      196, 186, 204, -1,
      204, 186, 187, -1,
      204, 187, 203, -1,
      203, 187, 188, -1,
      203, 188, 202, -1,
      202, 188, 189, -1,
      202, 189, 201, -1,
      201, 189, 190, -1,
      201, 190, 200, -1,
      200, 190, 191, -1,
      200, 191, 199, -1,
      199, 191, 192, -1,
      199, 192, 198, -1,
      198, 192, 179, -1,
      198, 179, 211, -1,
      211, 179, 180, -1,
      211, 180, 210, -1,
      210, 180, 181, -1,
      210, 181, 209, -1,
      209, 181, 182, -1,
      209, 182, 208, -1,
      208, 182, 183, -1,
      208, 183, 207, -1,
      207, 183, 184, -1,
      207, 184, 206, -1,
      206, 184, 185, -1,
      206, 185, 177, -1,
      214, 215, 26, -1,
      26, 215, 6, -1,
      215, 216, 6, -1,
      6, 216, 7, -1,
      216, 217, 7, -1,
      7, 217, 19, -1,
      217, 218, 19, -1,
      19, 218, 20, -1,
      218, 219, 20, -1,
      20, 219, 28, -1,
      219, 214, 28, -1,
      28, 214, 26, -1,
      218, 217, 219, -1,
      219, 217, 216, -1,
      219, 216, 214, -1,
      214, 216, 215, -1,
    ]
  }
}

Shape {
  appearance Appearance {
    material Material {
      diffuseColor 0.9490 0.7608 0.1804
      specularColor 0.7608 0.6078 0.1451
      ambientIntensity 0.2
      transparency 0.0000
      shininess 0.5
    }
  }
  geometry IndexedFaceSet {
    ccw TRUE
    solid FALSE
    coord DEF co Coordinate {
      point [
        0.137795 -0.015919 -0.640789,
        0.137795 -0.015919 -0.673704,
        0.137795 0.025192 -0.655474,
        0.137795 0.028605 -0.656421,
        0.137795 0.032093 -0.657050,
        0.137795 0.032093 -0.657369,
        0.137795 0.028616 -0.658011,
        0.137795 0.025192 -0.658887,
        0.137795 0.033294 -0.554967,
        0.137795 0.033294 -0.540451,
        0.137795 0.032056 -0.566617,
        0.137795 0.029212 -0.574741,
        0.137795 0.024568 -0.581930,
        0.137795 0.019491 -0.586711,
        0.137795 0.013421 -0.590131,
        0.137795 0.005636 -0.592428,
        0.137795 -0.004159 -0.593265,
        0.137795 -0.014498 -0.592361,
        0.137795 -0.023750 -0.589474,
        0.137795 -0.030535 -0.585323,
        0.137795 -0.035988 -0.579802,
        0.137795 -0.039974 -0.573090,
        0.137795 -0.042559 -0.564807,
        0.137795 -0.043526 -0.554423,
        0.137795 -0.043526 -0.540451,
      ]
    }
    coordIndex [
      0, 1, 2, -1,
      2, 1, 7, -1,
      2, 7, 3, -1,
      3, 7, 6, -1,
      3, 6, 4, -1,
      4, 6, 5, -1,
      9, 24, 8, -1,
      8, 24, 23, -1,
      8, 23, 22, -1,
      16, 15, 8, -1,
      8, 15, 14, -1,
      8, 14, 10, -1,
      22, 21, 8, -1,
      8, 21, 20, -1,
      8, 20, 19, -1,
      19, 18, 8, -1,
      8, 18, 17, -1,
      8, 17, 16, -1,
      13, 12, 14, -1,
      14, 12, 11, -1,
      14, 11, 10, -1,
    ]
  }
}
