#VRML V2.0 utf8
# 3D model generated by easyeda2kicad.py (https://github.com/uPesy/easyeda2kicad.py)

Shape{
    appearance Appearance {
        material  Material 	{
            diffuseColor 0.6666666666666666 0.6666666666666666 0.6666666666666666
            specularColor 0.4666666666666667 0.4666666666666667 0.4666666666666667
            ambientIntensity 0.6667
            transparency 0.0
            shininess 0.5
        }
    }
    geometry IndexedFaceSet {
        ccw TRUE
        solid FALSE
        coord DEF co Coordinate {
            point [
                -0.5079 1.0404 1.9836, -1.5748 1.0404 1.9836, -1.5748 1.0404 2.1828, 1.5748 1.0402 3.6221, 1.5748 1.0404 2.1828, 0.3806 1.0404 2.1828, 0.5166 1.0404 5.6032, 0.3806 1.0404 5.7157, 0.3806 1.0404 6.2205, 1.9681 1.0404 5.0394, 1.9681 1.0366 3.6221, 1.7319 1.0404 5.0394, 0.5166 1.0404 4.633, 0.621 1.0404 4.7767, 0.621 1.0404 5.4595, 1.7319 1.0404 5.6693, 1.9681 1.0404 5.6693, 1.9681 1.0404 6.2205, 0.6864 1.0404 4.9419, 0.7087 1.0404 5.1181, 0.6864 1.0404 5.2944, 0.219 1.0404 4.4441, 0.3797 1.0404 4.5198, 0.3806 1.0404 4.5205, 0.0445 1.0404 4.4109, 0.0625 1.0404 4.4143, 0.0625 1.0404 2.1828, 0.2066 1.0404 4.4418, -0.5079 1.0404 4.6319, -0.4517 1.0404 4.5721, -0.5079 1.0404 2.1828, -0.3017 1.0404 4.4769, -0.1328 1.0404 4.422, -1.9681 1.0378 3.6221, -1.9681 1.0404 5.0394, -1.7319 1.0404 5.0394, -0.4517 1.0404 5.6641, -0.5079 1.0404 5.6043, -0.5079 1.0404 6.2205, -1.7319 1.0404 5.6693, -1.9681 1.0404 6.2205, -1.9681 1.0404 5.6693, -0.7031 1.0404 5.0293, -0.6589 1.0404 4.8572, -0.5733 1.0404 4.7016, -0.5733 1.0404 5.5347, -0.6589 1.0404 5.379, -0.7031 1.0404 5.2069, -0.1223 1.0404 6.2205, -0.1328 1.0404 5.8142, -0.3017 1.0404 5.7593, 0.2066 1.0404 6.2205, 0.0625 1.0404 5.8219, 0.0625 1.0404 6.2205, 0.0445 1.0404 5.8254, -0.1223 1.0404 5.8149, 0.3797 1.0404 5.7165, 0.219 1.0404 5.7921, 0.2066 1.0404 5.7945, -1.5748 1.0402 3.6221, 0.389 1.0404 2.0064, 0.389 1.0404 1.9848, 0.3806 1.0404 1.9836, 0.4898 1.0404 1.9848, 0.4634 1.0404 2.1816, 0.4898 1.0404 2.1816, 1.5748 1.0404 1.9836, 1.5748 1.0404 1.0236, 0.3806 1.0404 1.0236, 0.2066 1.0404 2.1828, 0.2258 1.0404 2.0166, 0.2066 1.0404 1.9836, 0.2258 1.0404 1.995, 0.2468 1.0404 1.9864, 0.2547 1.0404 2.1828, 0.2485 1.0404 2.1824, 0.2258 1.0404 2.1762, 0.2258 1.0404 2.1498, 0.248 1.0404 2.1593, 0.2293 1.0404 2.0146, 0.2719 1.0404 2.1624, 0.2913 1.0404 2.1602, 0.306 1.0404 2.1549, 0.3196 1.0404 2.1458, 0.3315 1.0404 2.1327, 0.3458 1.0404 2.0811, 0.3438 1.0404 2.0598, 0.3385 1.0404 2.0428, 0.2947 1.0404 2.006, 0.2763 1.0404 2.004, 0.309 1.0404 2.0113, 0.3211 1.0404 2.0195, 0.3303 1.0404 2.0292, 0.2502 1.0404 2.0069, 0.3396 1.0404 2.1175, 0.3449 1.0404 2.0964, 0.3233 1.0404 1.9914, 0.3391 1.0404 2.0016, 0.3503 1.0404 2.1482, 0.3325 1.0404 2.1653, 0.3138 1.0404 2.176, 0.3722 1.0404 2.0795, 0.3694 1.0404 2.1075, 0.3618 1.0404 2.1298, 0.2919 1.0404 2.1824, 0.2868 1.0404 2.1828, 0.3539 1.0404 2.0171, 0.3644 1.0404 2.0358, 0.3703 1.0404 2.0567, 0.4634 1.0404 2.0064, 0.2667 1.0404 1.9836, 0.2746 1.0404 1.9825, 0.2066 1.0404 1.0236, 0.2799 1.0404 1.9824, 0.2915 1.0404 1.9836, 0.3042 1.0404 1.9849, -1.5748 1.0404 1.0236, -0.5079 1.0404 1.0236, -0.1223 1.0404 1.0236, -0.1223 1.0404 1.9836, 0.0625 1.0404 1.0236, 0.0625 1.0404 1.9836, 0.2721 1.0404 2.184, 0.0865 1.0404 2.1816, 0.0865 1.0404 2.16, 0.0817 1.0404 2.0064, 0.0817 1.0404 1.9848, 0.1874 1.0404 1.9848, 0.1874 1.0404 2.1816, 0.161 1.0404 2.0736, 0.161 1.0404 2.0064, 0.0913 1.0404 2.0736, 0.0913 1.0404 2.0952, 0.161 1.0404 2.0952, 0.161 1.0404 2.16, -0.0122 1.0404 2.1816, -0.1223 1.0404 2.1828, -0.1223 1.0404 4.4213, -0.0407 1.0404 2.1786, -0.0637 1.0404 2.1705, -0.0851 1.0404 2.1561, -0.1053 1.0404 2.0387, -0.094 1.0404 2.0211, -0.0778 1.0404 2.0056, -0.0572 1.0404 1.9937, -0.0853 1.0404 2.1559, -0.0992 1.0404 2.1405, -0.1084 1.0404 2.1236, -0.0346 1.0404 1.9869, -0.0102 1.0404 1.9848, 0.0433 1.0404 1.9848, 0.0433 1.0404 2.1816, -0.1137 1.0404 2.1042, -0.1151 1.0404 2.0857, -0.1123 1.0404 2.0593, -0.1583 1.0404 1.9848, -0.1295 1.0404 1.9848, -0.2784 1.0404 1.9848, -0.2584 1.0404 2.04, -0.1771 1.0404 2.04, -0.2039 1.0404 2.1816, -0.2303 1.0404 2.1816, -0.3072 1.0404 1.9848
            ]
        }
        coordIndex [
            0,1,2,-1,3,4,5,-1,6,7,8,-1,9,10,11,-1,11,10,3,-1,3,5,11,-1,11,5,12,-1,11,12,13,-1,14,6,15,-1,15,6,8,-1,15,8,16,-1,16,8,17,-1,13,18,11,-1,11,18,19,-1,11,19,15,-1,15,19,20,-1,15,20,14,-1,21,22,5,-1,5,22,23,-1,5,23,12,-1,24,25,26,-1,26,25,27,-1,28,29,30,-1,30,29,31,-1,30,31,32,-1,33,34,35,-1,36,37,38,-1,38,37,39,-1,38,39,40,-1,40,39,41,-1,42,43,35,-1,35,43,44,-1,35,44,28,-1,37,45,39,-1,39,45,46,-1,39,46,35,-1,35,46,47,-1,35,47,42,-1,48,49,38,-1,38,49,50,-1,38,50,36,-1,51,52,53,-1,53,52,54,-1,53,54,48,-1,48,54,55,-1,48,55,49,-1,7,56,8,-1,8,56,57,-1,8,57,51,-1,51,57,58,-1,51,58,52,-1,33,35,59,-1,59,35,28,-1,59,28,2,-1,2,28,30,-1,2,30,0,-1,60,61,62,-1,62,61,63,-1,64,5,65,-1,65,5,4,-1,65,4,63,-1,63,4,66,-1,63,66,62,-1,62,66,67,-1,62,67,68,-1,69,70,71,-1,71,70,72,-1,71,72,73,-1,69,74,75,-1,75,76,69,-1,69,76,77,-1,69,77,70,-1,70,77,78,-1,70,78,79,-1,79,78,80,-1,79,80,81,-1,81,82,79,-1,79,82,83,-1,79,83,84,-1,85,86,79,-1,79,86,87,-1,88,89,90,-1,90,89,91,-1,87,92,79,-1,79,92,91,-1,79,91,93,-1,93,91,89,-1,84,94,79,-1,79,94,95,-1,79,95,85,-1,96,97,62,-1,98,99,5,-1,5,99,100,-1,101,102,5,-1,5,102,103,-1,5,103,98,-1,100,104,5,-1,5,104,105,-1,5,105,21,-1,97,106,62,-1,62,106,107,-1,62,107,108,-1,108,101,62,-1,62,101,5,-1,62,5,60,-1,60,5,64,-1,60,64,109,-1,110,111,112,-1,112,111,68,-1,111,113,68,-1,68,113,114,-1,68,114,62,-1,62,114,115,-1,62,115,96,-1,116,1,117,-1,117,1,0,-1,117,0,118,-1,118,0,119,-1,118,119,120,-1,120,119,121,-1,120,121,112,-1,112,121,71,-1,112,71,110,-1,110,71,73,-1,105,122,21,-1,21,122,74,-1,21,74,27,-1,27,74,69,-1,27,69,26,-1,26,69,123,-1,123,124,26,-1,26,124,125,-1,26,125,121,-1,121,125,126,-1,121,126,71,-1,71,126,127,-1,71,127,69,-1,69,127,128,-1,69,128,123,-1,129,130,131,-1,131,130,125,-1,131,125,132,-1,132,125,124,-1,132,124,133,-1,133,124,134,-1,135,136,26,-1,26,136,137,-1,26,137,24,-1,135,138,136,-1,136,138,139,-1,136,139,140,-1,141,142,119,-1,119,142,143,-1,119,143,144,-1,140,145,136,-1,136,145,146,-1,136,146,147,-1,144,148,119,-1,119,148,149,-1,119,149,121,-1,121,149,150,-1,121,150,26,-1,26,150,151,-1,26,151,135,-1,147,152,136,-1,136,152,153,-1,136,153,119,-1,119,153,154,-1,119,154,141,-1,155,156,119,-1,157,158,159,-1,119,156,136,-1,136,156,160,-1,136,160,161,-1,159,155,157,-1,157,155,119,-1,157,119,162,-1,162,119,0,-1,162,0,161,-1,161,0,30,-1,161,30,136,-1,136,30,32,-1,136,32,137,-1,
        ]
    }
}
Shape{
    appearance Appearance {
        material  Material 	{
            diffuseColor 0.20784313725490197 0.20784313725490197 0.20784313725490197
            specularColor 0.01568627450980392 0.01568627450980392 0.01568627450980392
            ambientIntensity 0.298
            transparency 0.0
            shininess 0.5
        }
    }
    geometry IndexedFaceSet {
        ccw TRUE
        solid FALSE
        coord DEF co Coordinate {
            point [
                -0.8425 -0.1018 0.0174, -0.8425 0.04 0.0, -0.1575 0.04 0.0, -1.8152 -0.712 0.0923, -1.881 0.04 0.0, -1.1575 0.04 0.0, -1.1575 -0.1018 0.0174, -0.1575 -0.1018 0.0174, 0.1575 0.04 0.0, 0.8425 0.04 0.0, 0.1575 -0.1018 0.0174, 0.8425 -0.1018 0.0174, 1.1575 0.04 0.0, 1.881 0.04 0.0, 1.1575 -0.1018 0.0174, 1.8152 -0.712 0.0923, 0.8425 0.0951 0.0068, 1.9685 1.04 0.1228, -0.1575 0.0951 0.0068, -0.8425 0.0951 0.0068, 0.1575 0.0951 0.0068, 1.1575 0.0951 0.0068, -1.1575 0.0951 0.0068, -1.9685 1.04 0.1228
            ]
        }
        coordIndex [
            0,1,2,-1,3,4,5,-1,5,6,3,-1,3,6,0,-1,3,0,7,-1,7,0,2,-1,8,9,10,-1,10,9,11,-1,12,13,14,-1,14,13,15,-1,14,15,11,-1,11,15,3,-1,11,3,10,-1,10,3,7,-1,16,9,8,-1,17,13,12,-1,2,1,18,-1,18,1,19,-1,8,20,16,-1,16,20,17,-1,16,17,21,-1,21,17,12,-1,5,4,22,-1,22,4,23,-1,22,23,19,-1,19,23,17,-1,19,17,18,-1,18,17,20,-1,
        ]
    }
}
Shape{
    appearance Appearance {
        material  Material 	{
            diffuseColor 0.6666666666666666 0.6666666666666666 0.6666666666666666
            specularColor 0.4666666666666667 0.4666666666666667 0.4666666666666667
            ambientIntensity 0.6667
            transparency 0.0
            shininess 0.5
        }
    }
    geometry IndexedFaceSet {
        ccw TRUE
        solid FALSE
        coord DEF co Coordinate {
            point [
                -1.9681 0.54 6.2205, -1.9681 1.0404 6.2205, -1.9681 0.54 5.6693, -1.9681 1.0404 5.6693, -1.9681 1.0378 3.6221, -1.9681 0.54 3.6221, -1.9681 1.0404 5.0394, -1.9681 0.54 5.0394, -1.7319 0.54 5.0394, 1.9681 0.54 6.2205, -1.7319 0.54 5.6693, 1.7319 0.54 5.6693, 1.9681 0.54 5.6693, 0.219 0.54 4.4441, 0.0445 0.54 4.4109, 1.9248 0.54 3.6221, -1.9248 0.54 3.6221, 0.3797 0.54 4.5198, 1.7319 0.54 5.0394, -0.1328 0.54 4.422, -0.3017 0.54 4.4769, 1.9681 0.54 3.6221, 1.9681 0.54 5.0394, -0.5733 0.54 5.5347, -0.4517 0.54 5.6641, 0.3797 0.54 5.7165, 0.5166 0.54 5.6032, -0.5733 0.54 4.7016, -0.6589 0.54 4.8572, -0.4517 0.54 4.5721, -0.3017 0.54 5.7593, -0.1328 0.54 5.8142, 0.0445 0.54 5.8254, 0.219 0.54 5.7921, -0.7031 0.54 5.0293, -0.7031 0.54 5.2069, -0.6589 0.54 5.379, 0.6864 0.54 4.9419, 0.621 0.54 4.7767, 0.5166 0.54 4.633, 0.621 0.54 5.4595, 0.6864 0.54 5.2944, 0.7087 0.54 5.1181, 1.9681 1.0366 3.6221, 1.9681 1.0404 5.0394
            ]
        }
        coordIndex [
            0,1,2,-1,2,1,3,-1,4,5,6,-1,6,5,7,-1,8,7,5,-1,9,0,10,-1,10,0,2,-1,11,12,9,-1,13,14,15,-1,15,14,16,-1,17,13,18,-1,14,19,16,-1,16,19,20,-1,16,20,5,-1,13,15,18,-1,18,15,21,-1,18,21,22,-1,23,24,10,-1,11,25,26,-1,27,28,8,-1,5,20,8,-1,8,20,29,-1,8,29,27,-1,24,30,10,-1,10,30,31,-1,10,31,9,-1,9,31,32,-1,9,32,11,-1,11,32,33,-1,11,33,25,-1,28,34,8,-1,8,34,35,-1,8,35,10,-1,10,35,36,-1,10,36,23,-1,37,38,18,-1,18,38,39,-1,18,39,17,-1,26,40,11,-1,11,40,41,-1,11,41,18,-1,18,41,42,-1,18,42,37,-1,21,43,22,-1,22,43,44,-1,
        ]
    }
}
Shape{
    appearance Appearance {
        material  Material 	{
            diffuseColor 0.20784313725490197 0.20784313725490197 0.20784313725490197
            specularColor 0.01568627450980392 0.01568627450980392 0.01568627450980392
            ambientIntensity 0.298
            transparency 0.0
            shininess 0.5
        }
    }
    geometry IndexedFaceSet {
        ccw TRUE
        solid FALSE
        coord DEF co Coordinate {
            point [
                1.5748 1.0402 3.6221, 1.9681 1.0366 3.6221, 1.5748 1.04 1.0236, 1.9685 1.04 0.1228, -1.5748 1.04 1.0236, -1.9685 1.04 0.1228, -1.5748 1.0402 3.6221, -1.9681 1.0378 3.6221, 0.2557 -0.712 1.6634, 0.2088 -0.712 1.6022, 1.8152 -0.712 0.0923, 0.0 -0.712 1.5158, -1.8152 -0.712 0.0923, 0.0764 -0.712 1.5258, 0.1476 -0.712 1.5553, -0.0764 -0.712 1.5258, -0.1476 -0.712 1.5553, -0.2088 -0.712 1.6022, -0.2852 -0.712 1.8875, -0.2557 -0.712 1.9587, -1.8152 -0.712 3.4683, -0.2088 -0.712 2.0198, -0.2557 -0.712 1.6634, -0.2852 -0.712 1.7346, -0.2953 -0.712 1.811, -0.1476 -0.712 2.0667, -0.0764 -0.712 2.0962, 1.8152 -0.712 3.4683, 0.0 -0.712 2.1063, 0.0764 -0.712 2.0962, 0.1476 -0.712 2.0667, 0.2088 -0.712 2.0198, 0.2557 -0.712 1.9587, 0.2852 -0.712 1.8875, 0.2953 -0.712 1.811, 0.2852 -0.712 1.7346, 1.9248 0.54 3.6221, 1.881 0.04 0.0, -1.881 0.04 0.0, -1.9248 0.54 3.6221
            ]
        }
        coordIndex [
            0,1,2,-1,2,1,3,-1,2,3,4,-1,4,3,5,-1,4,5,6,-1,6,5,7,-1,8,9,10,-1,11,12,13,-1,13,12,10,-1,13,10,14,-1,14,10,9,-1,11,15,12,-1,12,15,16,-1,12,16,17,-1,18,19,20,-1,20,19,21,-1,17,22,12,-1,12,22,23,-1,12,23,20,-1,20,23,24,-1,20,24,18,-1,21,25,20,-1,20,25,26,-1,20,26,27,-1,27,26,28,-1,27,28,29,-1,29,30,27,-1,27,30,31,-1,27,31,32,-1,32,33,27,-1,27,33,34,-1,27,34,10,-1,10,34,35,-1,10,35,8,-1,3,1,36,-1,3,36,37,-1,37,36,27,-1,37,27,10,-1,12,20,38,-1,38,20,39,-1,38,39,5,-1,5,39,7,-1,39,20,36,-1,36,20,27,-1,
        ]
    }
}
Shape{
    appearance Appearance {
        material  Material 	{
            diffuseColor 0.6666666666666666 0.6666666666666666 0.6666666666666666
            specularColor 0.4666666666666667 0.4666666666666667 0.4666666666666667
            ambientIntensity 0.6667
            transparency 0.0
            shininess 0.5
        }
    }
    geometry IndexedFaceSet {
        ccw TRUE
        solid FALSE
        coord DEF co Coordinate {
            point [
                -1.9681 1.0378 3.6221, -1.9248 0.54 3.6221, -1.9681 0.54 3.6221, 1.9248 0.54 3.6221, 1.9681 1.0366 3.6221, 1.9681 0.54 3.6221, 1.9681 1.0404 6.2205, 1.9681 0.54 6.2205, 1.9681 1.0404 5.6693, 1.9681 0.54 5.6693, -0.5079 1.0404 6.2205, -1.9681 1.0404 6.2205, -1.9681 0.54 6.2205, 0.3806 1.0404 6.2205, 0.2066 1.0404 6.2205, 0.0625 1.0404 6.2205, -0.1223 1.0404 6.2205, 1.5748 1.0404 1.0236, 1.5748 1.0404 1.9836, 1.5748 1.04 1.0236, 1.5748 1.0404 2.1828, 1.5748 1.0402 3.6221, -1.5748 1.0402 3.6221, -1.5748 1.0404 2.1828, -1.5748 1.04 1.0236, -1.5748 1.0404 1.9836, -1.5748 1.0404 1.0236, -0.5079 1.0404 1.0236, 0.3806 1.0404 1.0236, -0.1223 1.0404 1.0236, 0.0625 1.0404 1.0236, 0.2066 1.0404 1.0236, 0.0445 1.0404 5.8254, 0.0625 1.0404 5.8219, 0.0445 0.54 5.8254, 0.2066 1.0404 5.7945, 0.219 0.54 5.7921, 0.219 1.0404 5.7921, 0.3797 0.54 5.7165, 0.3797 1.0404 5.7165, 0.5166 0.54 5.6032, -0.1223 1.0404 5.8149, -0.1328 0.54 5.8142, -0.1328 1.0404 5.8142, -0.3017 1.0404 5.7593, -0.3017 0.54 5.7593, -0.4517 1.0404 5.6641, -0.4517 0.54 5.6641, -0.5079 1.0404 5.6043, -0.5733 0.54 5.5347, -0.5733 1.0404 5.5347, -0.6589 1.0404 5.379, -0.6589 0.54 5.379, -0.7031 1.0404 5.2069, -0.7031 0.54 5.2069, -0.7031 1.0404 5.0293, -0.7031 0.54 5.0293, -0.6589 1.0404 4.8572, -0.6589 0.54 4.8572, -0.5733 1.0404 4.7016, -0.5733 0.54 4.7016, -0.5079 1.0404 4.6319, -0.4517 0.54 4.5721, -0.4517 1.0404 4.5721, -0.3017 1.0404 4.4769, -0.3017 0.54 4.4769, -0.1328 1.0404 4.422, -0.1328 0.54 4.422, -0.1223 1.0404 4.4213, 0.0445 0.54 4.4109, 0.0445 1.0404 4.4109, 0.219 0.54 4.4441, 0.2066 1.0404 4.4418, 0.0625 1.0404 4.4143, 0.5166 0.54 4.633, 0.3806 1.0404 4.5205, 0.3797 0.54 4.5198, 0.3797 1.0404 4.5198, 0.219 1.0404 4.4441, 0.3806 1.0404 5.7157, 0.5166 1.0404 5.6032, 0.621 0.54 5.4595, 0.621 1.0404 5.4595, 0.6864 0.54 5.2944, 0.6864 1.0404 5.2944, 0.7087 0.54 5.1181, 0.7087 1.0404 5.1181, 0.6864 0.54 4.9419, 0.6864 1.0404 4.9419, 0.621 0.54 4.7767, 0.621 1.0404 4.7767, 0.5166 1.0404 4.633, 1.9681 0.54 5.0394, 1.9681 1.0404 5.0394, 1.7319 0.54 5.0394, 1.7319 1.0404 5.0394, 1.7319 0.54 5.6693, 1.7319 1.0404 5.6693, -1.7319 0.54 5.6693, -1.9681 0.54 5.6693, -1.7319 1.0404 5.6693, -1.9681 1.0404 5.6693, -1.7319 0.54 5.0394, -1.7319 1.0404 5.0394, -1.9681 0.54 5.0394, -1.9681 1.0404 5.0394, 0.9213 -0.1018 -1.9685, 1.0787 -0.1018 -1.9685, 0.8425 -0.1018 -1.7522, 1.1575 -0.1018 -1.7522, 0.8425 -0.1018 0.0174, 1.1575 -0.1018 0.0174, 0.9213 0.0951 -1.9685, 1.0787 0.0951 -1.9685, 0.8425 0.0951 0.0068, 1.1575 0.0951 0.0068, 0.8425 0.0951 -1.7522, 1.1575 0.0951 -1.7522, 1.1575 0.04 0.0, 0.8425 0.04 0.0, -0.0787 -0.1018 -1.9685, 0.0787 -0.1018 -1.9685, -0.1575 -0.1018 -1.7522, 0.1575 -0.1018 -1.7522, -0.1575 -0.1018 0.0174, 0.1575 -0.1018 0.0174, -0.0787 0.0951 -1.9685, 0.0787 0.0951 -1.9685, -0.1575 0.0951 0.0068, 0.1575 0.0951 0.0068, -0.1575 0.0951 -1.7522, 0.1575 0.0951 -1.7522, 0.1575 0.04 0.0, -0.1575 0.04 0.0, -1.0787 -0.1018 -1.9685, -0.9213 -0.1018 -1.9685, -1.1575 -0.1018 -1.7522, -0.8425 -0.1018 -1.7522, -1.1575 -0.1018 0.0174, -0.8425 -0.1018 0.0174, -1.0787 0.0951 -1.9685, -0.9213 0.0951 -1.9685, -1.1575 0.0951 0.0068, -0.8425 0.0951 0.0068, -1.1575 0.0951 -1.7522, -0.8425 0.0951 -1.7522, -0.8425 0.04 0.0, -1.1575 0.04 0.0
            ]
        }
        coordIndex [
            0,1,2,-1,3,4,5,-1,6,7,8,-1,8,7,9,-1,10,11,12,-1,7,6,13,-1,13,14,7,-1,7,14,15,-1,7,15,12,-1,12,15,16,-1,12,16,10,-1,17,18,19,-1,19,18,20,-1,19,20,21,-1,22,23,24,-1,24,23,25,-1,24,25,26,-1,24,26,27,-1,28,17,19,-1,27,29,24,-1,24,29,30,-1,24,30,19,-1,19,30,31,-1,19,31,28,-1,32,33,34,-1,34,33,35,-1,34,35,36,-1,36,35,37,-1,36,37,38,-1,38,37,39,-1,38,39,40,-1,32,34,41,-1,41,34,42,-1,41,42,43,-1,43,42,44,-1,44,42,45,-1,44,45,46,-1,46,45,47,-1,46,47,48,-1,48,47,49,-1,48,49,50,-1,50,49,51,-1,51,49,52,-1,51,52,53,-1,53,52,54,-1,53,54,55,-1,55,54,56,-1,55,56,57,-1,57,56,58,-1,57,58,59,-1,59,58,60,-1,59,60,61,-1,61,60,62,-1,61,62,63,-1,63,62,64,-1,64,62,65,-1,64,65,66,-1,66,65,67,-1,66,67,68,-1,68,67,69,-1,68,69,70,-1,71,72,69,-1,69,72,73,-1,69,73,70,-1,74,75,76,-1,76,75,77,-1,76,77,71,-1,71,77,78,-1,71,78,72,-1,39,79,40,-1,40,79,80,-1,40,80,81,-1,81,80,82,-1,81,82,83,-1,83,82,84,-1,83,84,85,-1,85,84,86,-1,85,86,87,-1,87,86,88,-1,87,88,89,-1,89,88,90,-1,89,90,74,-1,74,90,91,-1,74,91,75,-1,92,93,94,-1,94,93,95,-1,94,95,96,-1,96,95,97,-1,96,97,9,-1,9,97,8,-1,98,99,100,-1,100,99,101,-1,102,98,103,-1,103,98,100,-1,104,102,105,-1,105,102,103,-1,106,107,108,-1,108,107,109,-1,108,109,110,-1,110,109,111,-1,112,113,106,-1,106,113,107,-1,114,115,116,-1,116,115,117,-1,116,117,112,-1,112,117,113,-1,111,109,118,-1,118,109,117,-1,118,117,115,-1,108,110,116,-1,116,110,119,-1,116,119,114,-1,106,108,112,-1,112,108,116,-1,109,107,117,-1,117,107,113,-1,120,121,122,-1,122,121,123,-1,122,123,124,-1,124,123,125,-1,126,127,120,-1,120,127,121,-1,128,129,130,-1,130,129,131,-1,130,131,126,-1,126,131,127,-1,125,123,132,-1,132,123,131,-1,132,131,129,-1,122,124,130,-1,130,124,133,-1,130,133,128,-1,134,135,136,-1,136,135,137,-1,136,137,138,-1,138,137,139,-1,140,141,134,-1,134,141,135,-1,142,143,144,-1,144,143,145,-1,144,145,140,-1,140,145,141,-1,139,137,146,-1,146,137,145,-1,146,145,143,-1,136,138,144,-1,144,138,147,-1,144,147,142,-1,120,122,126,-1,126,122,130,-1,123,121,131,-1,131,121,127,-1,134,136,140,-1,140,136,144,-1,137,135,145,-1,145,135,141,-1,
        ]
    }
}
Shape{
    appearance Appearance {
        material  Material 	{
            diffuseColor 1.0 1.0 1.0
            specularColor 0.8784313725490196 0.8784313725490196 0.8784313725490196
            ambientIntensity 1.0
            transparency 0.0
            shininess 0.5
        }
    }
    geometry IndexedFaceSet {
        ccw TRUE
        solid FALSE
        coord DEF co Coordinate {
            point [
                -0.2303 0.9616 2.1816, -0.3072 0.9616 1.9848, -0.2303 1.0404 2.1816, -0.3072 1.0404 1.9848, -0.2784 0.9616 1.9848, -0.2784 1.0404 1.9848, -0.2584 0.9616 2.04, -0.2584 1.0404 2.04, -0.1771 0.9616 2.04, -0.1771 1.0404 2.04, -0.1583 0.9616 1.9848, -0.1583 1.0404 1.9848, -0.1295 0.9616 1.9848, -0.1295 1.0404 1.9848, -0.2039 0.9616 2.1816, -0.2039 1.0404 2.1816, -0.1838 0.9616 2.0616, -0.2131 0.9616 2.1438, -0.215 0.9616 2.1506, -0.2163 0.9616 2.1576, -0.2169 0.9616 2.1576, -0.2182 0.9616 2.1507, -0.2199 0.9616 2.1438, -0.2496 0.9616 2.0616, -0.1838 1.0404 2.0616, -0.2496 1.0404 2.0616, -0.2131 1.0404 2.1438, -0.215 1.0404 2.1506, -0.2163 1.0404 2.1576, -0.2169 1.0404 2.1576, -0.2182 1.0404 2.1507, -0.2199 1.0404 2.1438, -0.0102 0.9616 1.9848, 0.0433 0.9616 1.9848, -0.0102 1.0404 1.9848, 0.0433 1.0404 1.9848, 0.0433 0.9616 2.1816, 0.0433 1.0404 2.1816, -0.0122 0.9616 2.1816, -0.0122 1.0404 2.1816, -0.1151 0.9616 2.0857, -0.1151 1.0404 2.0857, -0.1137 1.0404 2.1042, -0.1137 0.9616 2.1042, -0.1084 1.0404 2.1236, -0.1084 0.9616 2.1236, -0.0992 1.0404 2.1405, -0.0992 0.9616 2.1405, -0.0853 1.0404 2.1559, -0.0853 0.9616 2.1559, -0.0851 1.0404 2.1561, -0.0851 0.9616 2.1561, -0.0637 1.0404 2.1705, -0.0637 0.9616 2.1705, -0.0407 1.0404 2.1786, -0.0407 0.9616 2.1786, -0.0346 1.0404 1.9869, -0.0346 0.9616 1.9869, -0.0572 1.0404 1.9937, -0.0572 0.9616 1.9937, -0.0778 1.0404 2.0056, -0.0778 0.9616 2.0056, -0.094 1.0404 2.0211, -0.094 0.9616 2.0211, -0.1053 1.0404 2.0387, -0.1053 0.9616 2.0387, -0.1123 1.0404 2.0593, -0.1123 0.9616 2.0593, -0.0756 0.9616 2.1324, -0.066 0.9616 2.1426, -0.0517 0.9616 2.1518, -0.0354 0.9616 2.1575, -0.0121 0.9616 2.16, 0.0169 0.9616 2.16, 0.0169 0.9616 2.0064, -0.011 0.9616 2.0064, -0.0318 0.9616 2.0083, -0.0484 0.9616 2.0135, -0.0618 0.9616 2.0214, -0.0728 0.9616 2.0324, -0.0811 0.9616 2.0459, -0.0869 0.9616 2.0644, -0.0887 0.9616 2.0851, -0.087 0.9616 2.1047, -0.0824 0.9616 2.1203, -0.0121 1.0404 2.16, 0.0169 1.0404 2.16, -0.0354 1.0404 2.1575, -0.0517 1.0404 2.1518, -0.066 1.0404 2.1426, -0.0756 1.0404 2.1324, -0.0824 1.0404 2.1203, -0.087 1.0404 2.1047, -0.0887 1.0404 2.0851, -0.0869 1.0404 2.0644, -0.0811 1.0404 2.0459, -0.0728 1.0404 2.0324, -0.0618 1.0404 2.0214, -0.0484 1.0404 2.0135, -0.0318 1.0404 2.0083, -0.011 1.0404 2.0064, 0.0169 1.0404 2.0064, 0.0817 0.9616 2.0064, 0.0817 0.9616 1.9848, 0.0817 1.0404 2.0064, 0.0817 1.0404 1.9848, 0.1874 0.9616 1.9848, 0.1874 1.0404 1.9848, 0.1874 0.9616 2.1816, 0.1874 1.0404 2.1816, 0.0865 0.9616 2.1816, 0.0865 1.0404 2.1816, 0.0865 0.9616 2.16, 0.0865 1.0404 2.16, 0.161 0.9616 2.16, 0.161 1.0404 2.16, 0.161 0.9616 2.0952, 0.161 1.0404 2.0952, 0.0913 0.9616 2.0952, 0.0913 1.0404 2.0952, 0.0913 0.9616 2.0736, 0.0913 1.0404 2.0736, 0.161 0.9616 2.0736, 0.161 1.0404 2.0736, 0.161 0.9616 2.0064, 0.161 1.0404 2.0064, 0.2258 0.9616 2.0166, 0.2258 0.9616 1.995, 0.2258 1.0404 2.0166, 0.2258 1.0404 1.995, 0.2468 0.9616 1.9864, 0.2799 0.9616 1.9824, 0.2799 1.0404 1.9824, 0.2746 1.0404 1.9825, 0.2746 0.9616 1.9825, 0.2667 1.0404 1.9836, 0.2468 1.0404 1.9864, 0.2915 1.0404 1.9836, 0.3042 0.9616 1.9849, 0.3042 1.0404 1.9849, 0.3233 0.9616 1.9914, 0.3233 1.0404 1.9914, 0.3391 0.9616 2.0016, 0.3391 1.0404 2.0016, 0.3539 0.9616 2.0171, 0.3539 1.0404 2.0171, 0.3644 0.9616 2.0358, 0.3644 1.0404 2.0358, 0.3703 0.9616 2.0567, 0.3703 1.0404 2.0567, 0.3722 0.9616 2.0795, 0.3722 1.0404 2.0795, 0.2721 1.0404 2.184, 0.2868 1.0404 2.1828, 0.2721 0.9616 2.184, 0.2919 0.9616 2.1824, 0.2919 1.0404 2.1824, 0.3138 1.0404 2.176, 0.3138 0.9616 2.176, 0.3325 1.0404 2.1653, 0.3325 0.9616 2.1653, 0.3503 1.0404 2.1482, 0.3503 0.9616 2.1482, 0.3618 1.0404 2.1298, 0.3618 0.9616 2.1298, 0.3694 1.0404 2.1075, 0.3694 0.9616 2.1075, 0.2547 1.0404 2.1828, 0.2485 0.9616 2.1824, 0.2485 1.0404 2.1824, 0.2258 0.9616 2.1762, 0.2258 1.0404 2.1762, 0.2258 0.9616 2.1498, 0.2258 1.0404 2.1498, 0.2719 0.9616 2.1624, 0.2719 1.0404 2.1624, 0.248 1.0404 2.1593, 0.248 0.9616 2.1593, 0.3458 0.9616 2.0811, 0.3458 1.0404 2.0811, 0.3449 1.0404 2.0964, 0.3449 0.9616 2.0964, 0.3396 1.0404 2.1175, 0.3396 0.9616 2.1175, 0.3315 1.0404 2.1327, 0.3315 0.9616 2.1327, 0.3196 1.0404 2.1458, 0.3196 0.9616 2.1458, 0.306 1.0404 2.1549, 0.306 0.9616 2.1549, 0.2913 1.0404 2.1602, 0.2913 0.9616 2.1602, 0.2763 0.9616 2.004, 0.2763 1.0404 2.004, 0.2947 1.0404 2.006, 0.2947 0.9616 2.006, 0.309 1.0404 2.0113, 0.309 0.9616 2.0113, 0.3211 1.0404 2.0195, 0.3211 0.9616 2.0195, 0.3303 1.0404 2.0292, 0.3303 0.9616 2.0292, 0.3385 1.0404 2.0428, 0.3385 0.9616 2.0428, 0.3438 1.0404 2.0598, 0.3438 0.9616 2.0598, 0.2293 1.0404 2.0146, 0.2293 0.9616 2.0146, 0.2502 1.0404 2.0069, 0.2502 0.9616 2.0069, 0.389 0.9616 2.0064, 0.389 0.9616 1.9848, 0.389 1.0404 2.0064, 0.389 1.0404 1.9848, 0.4898 0.9616 1.9848, 0.4898 1.0404 1.9848, 0.4898 0.9616 2.1816, 0.4898 1.0404 2.1816, 0.4634 0.9616 2.1816, 0.4634 1.0404 2.1816, 0.4634 0.9616 2.0064, 0.4634 1.0404 2.0064
            ]
        }
        coordIndex [
            0,1,2,-1,2,1,3,-1,1,4,3,-1,3,4,5,-1,4,6,5,-1,5,6,7,-1,6,8,7,-1,7,8,9,-1,8,10,9,-1,9,10,11,-1,10,12,11,-1,11,12,13,-1,12,14,13,-1,13,14,15,-1,14,0,15,-1,15,0,2,-1,16,17,14,-1,12,10,8,-1,17,18,14,-1,14,18,19,-1,14,19,0,-1,0,19,20,-1,0,20,21,-1,21,22,0,-1,0,22,23,-1,0,23,1,-1,4,1,6,-1,6,1,23,-1,6,23,8,-1,8,23,16,-1,8,16,12,-1,12,16,14,-1,16,23,24,-1,24,23,25,-1,17,16,26,-1,26,16,24,-1,17,26,27,-1,17,27,18,-1,18,27,28,-1,18,28,19,-1,20,19,29,-1,29,19,28,-1,20,29,30,-1,20,30,21,-1,21,30,31,-1,21,31,22,-1,23,22,25,-1,25,22,31,-1,32,33,34,-1,34,33,35,-1,33,36,35,-1,35,36,37,-1,36,38,37,-1,37,38,39,-1,40,41,42,-1,40,42,43,-1,43,42,44,-1,43,44,45,-1,45,44,46,-1,45,46,47,-1,47,46,48,-1,47,48,49,-1,49,48,50,-1,49,50,51,-1,51,50,52,-1,51,52,53,-1,53,52,54,-1,53,54,55,-1,55,54,39,-1,55,39,38,-1,32,34,56,-1,32,56,57,-1,57,56,58,-1,57,58,59,-1,59,58,60,-1,59,60,61,-1,61,60,62,-1,61,62,63,-1,63,62,64,-1,63,64,65,-1,65,64,66,-1,65,66,67,-1,67,66,41,-1,67,41,40,-1,45,47,68,-1,68,47,49,-1,68,49,69,-1,69,49,51,-1,69,51,70,-1,70,51,53,-1,70,53,71,-1,71,53,55,-1,71,55,72,-1,72,55,38,-1,72,38,73,-1,73,38,36,-1,73,36,74,-1,74,36,33,-1,74,33,75,-1,75,33,32,-1,75,32,76,-1,76,32,57,-1,76,57,77,-1,77,57,59,-1,77,59,78,-1,78,59,61,-1,78,61,79,-1,79,61,63,-1,79,63,80,-1,80,63,65,-1,80,65,81,-1,81,65,67,-1,81,67,82,-1,82,67,40,-1,82,40,83,-1,83,40,43,-1,83,43,84,-1,84,43,45,-1,84,45,68,-1,72,73,85,-1,85,73,86,-1,72,85,87,-1,72,87,71,-1,71,87,88,-1,71,88,70,-1,70,88,89,-1,70,89,69,-1,69,89,90,-1,69,90,68,-1,68,90,91,-1,68,91,84,-1,84,91,92,-1,84,92,83,-1,83,92,93,-1,83,93,82,-1,82,93,94,-1,82,94,81,-1,81,94,95,-1,81,95,80,-1,80,95,96,-1,80,96,79,-1,79,96,97,-1,79,97,78,-1,78,97,98,-1,78,98,77,-1,77,98,99,-1,77,99,76,-1,76,99,100,-1,76,100,75,-1,74,75,101,-1,101,75,100,-1,73,74,86,-1,86,74,101,-1,102,103,104,-1,104,103,105,-1,103,106,105,-1,105,106,107,-1,106,108,107,-1,107,108,109,-1,108,110,109,-1,109,110,111,-1,110,112,111,-1,111,112,113,-1,112,114,113,-1,113,114,115,-1,114,116,115,-1,115,116,117,-1,116,118,117,-1,117,118,119,-1,118,120,119,-1,119,120,121,-1,120,122,121,-1,121,122,123,-1,122,124,123,-1,123,124,125,-1,124,102,125,-1,125,102,104,-1,106,103,102,-1,102,124,106,-1,106,124,122,-1,106,122,108,-1,112,110,114,-1,114,110,108,-1,114,108,116,-1,116,108,122,-1,116,122,118,-1,118,122,120,-1,126,127,128,-1,128,127,129,-1,129,127,130,-1,131,132,133,-1,131,133,134,-1,134,133,135,-1,134,135,130,-1,130,135,136,-1,130,136,129,-1,132,131,137,-1,137,131,138,-1,137,138,139,-1,139,138,140,-1,139,140,141,-1,141,140,142,-1,141,142,143,-1,143,142,144,-1,143,144,145,-1,145,144,146,-1,145,146,147,-1,147,146,148,-1,147,148,149,-1,149,148,150,-1,149,150,151,-1,152,153,154,-1,154,153,155,-1,153,156,155,-1,155,156,157,-1,155,157,158,-1,158,157,159,-1,158,159,160,-1,160,159,161,-1,160,161,162,-1,162,161,163,-1,162,163,164,-1,164,163,165,-1,164,165,166,-1,166,165,151,-1,166,151,150,-1,152,154,167,-1,167,154,168,-1,167,168,169,-1,169,168,170,-1,169,170,171,-1,170,172,171,-1,171,172,173,-1,174,175,176,-1,174,176,177,-1,177,176,173,-1,177,173,172,-1,178,179,180,-1,178,180,181,-1,181,180,182,-1,181,182,183,-1,183,182,184,-1,183,184,185,-1,185,184,186,-1,185,186,187,-1,187,186,188,-1,187,188,189,-1,189,188,190,-1,189,190,191,-1,191,190,175,-1,191,175,174,-1,192,193,194,-1,192,194,195,-1,195,194,196,-1,195,196,197,-1,197,196,198,-1,197,198,199,-1,199,198,200,-1,199,200,201,-1,201,200,202,-1,201,202,203,-1,203,202,204,-1,203,204,205,-1,205,204,179,-1,205,179,178,-1,126,128,206,-1,126,206,207,-1,207,206,208,-1,207,208,209,-1,209,208,193,-1,209,193,192,-1,195,131,192,-1,192,131,134,-1,192,134,209,-1,209,134,130,-1,209,130,207,-1,207,130,127,-1,207,127,126,-1,172,170,177,-1,177,170,168,-1,177,168,174,-1,174,168,154,-1,174,154,191,-1,191,154,155,-1,191,155,189,-1,189,155,158,-1,189,158,187,-1,187,158,160,-1,187,160,185,-1,185,160,162,-1,185,162,183,-1,183,162,164,-1,183,164,181,-1,181,164,166,-1,181,166,178,-1,178,166,150,-1,178,150,205,-1,205,150,148,-1,205,148,203,-1,203,148,146,-1,203,146,201,-1,201,146,144,-1,201,144,199,-1,199,144,142,-1,199,142,197,-1,197,142,140,-1,197,140,195,-1,195,140,138,-1,195,138,131,-1,210,211,212,-1,212,211,213,-1,211,214,213,-1,213,214,215,-1,214,216,215,-1,215,216,217,-1,216,218,217,-1,217,218,219,-1,218,220,219,-1,219,220,221,-1,220,210,221,-1,221,210,212,-1,218,216,220,-1,220,216,214,-1,220,214,210,-1,210,214,211,-1,
        ]
    }
}
Shape{
    appearance Appearance {
        material  Material 	{
            diffuseColor 0.6666666666666666 0.6666666666666666 0.6666666666666666
            specularColor 0.4666666666666667 0.4666666666666667 0.4666666666666667
            ambientIntensity 0.6667
            transparency 0.0
            shininess 0.5
        }
    }
    geometry IndexedFaceSet {
        ccw TRUE
        solid FALSE
        coord DEF co Coordinate {
            point [
                -0.1838 1.0404 2.0616, -0.2496 1.0404 2.0616, -0.2131 1.0404 2.1438, -0.2199 1.0404 2.1438, -0.215 1.0404 2.1506, -0.2182 1.0404 2.1507, -0.2163 1.0404 2.1576, -0.2169 1.0404 2.1576, 0.0169 1.0404 2.16, 0.0169 1.0404 2.0064, -0.0121 1.0404 2.16, -0.011 1.0404 2.0064, -0.0318 1.0404 2.0083, -0.0887 1.0404 2.0851, -0.087 1.0404 2.1047, -0.0824 1.0404 2.1203, -0.0354 1.0404 2.1575, -0.0484 1.0404 2.0135, -0.0618 1.0404 2.0214, -0.0728 1.0404 2.0324, -0.0811 1.0404 2.0459, -0.0869 1.0404 2.0644, -0.0756 1.0404 2.1324, -0.066 1.0404 2.1426, -0.0517 1.0404 2.1518
            ]
        }
        coordIndex [
            0,1,2,-1,2,1,3,-1,2,3,4,-1,4,3,5,-1,4,5,6,-1,6,5,7,-1,8,9,10,-1,10,9,11,-1,10,11,12,-1,13,14,10,-1,10,14,15,-1,10,15,16,-1,12,17,10,-1,10,17,18,-1,10,18,19,-1,19,20,10,-1,10,20,21,-1,10,21,13,-1,22,23,15,-1,15,23,24,-1,15,24,16,-1,
        ]
    }
}
Shape{
    appearance Appearance {
        material  Material 	{
            diffuseColor 0.20784313725490197 0.20784313725490197 0.20784313725490197
            specularColor 0.01568627450980392 0.01568627450980392 0.01568627450980392
            ambientIntensity 0.298
            transparency 0.0
            shininess 0.5
        }
    }
    geometry IndexedFaceSet {
        ccw TRUE
        solid FALSE
        coord DEF co Coordinate {
            point [
                0.2953 -0.5152 1.811, 0.2953 -0.712 1.811, 0.2852 -0.5152 1.8875, 0.2852 -0.712 1.8875, 0.2557 -0.5152 1.9587, 0.2557 -0.712 1.9587, 0.2088 -0.5152 2.0198, 0.2088 -0.712 2.0198, 0.1476 -0.5152 2.0667, 0.1476 -0.712 2.0667, 0.0764 -0.5152 2.0962, 0.0764 -0.712 2.0962, 0.0 -0.5152 2.1063, 0.0 -0.712 2.1063, -0.0764 -0.5152 2.0962, -0.0764 -0.712 2.0962, -0.1476 -0.5152 2.0667, -0.1476 -0.712 2.0667, -0.2088 -0.5152 2.0198, -0.2088 -0.712 2.0198, -0.2557 -0.5152 1.9587, -0.2557 -0.712 1.9587, -0.2852 -0.5152 1.8875, -0.2852 -0.712 1.8875, -0.2953 -0.5152 1.811, -0.2953 -0.712 1.811, -0.2852 -0.5152 1.7346, -0.2852 -0.712 1.7346, -0.2557 -0.5152 1.6634, -0.2557 -0.712 1.6634, -0.2088 -0.5152 1.6022, -0.2088 -0.712 1.6022, -0.1476 -0.5152 1.5553, -0.1476 -0.712 1.5553, -0.0764 -0.5152 1.5258, -0.0764 -0.712 1.5258, 0.0 -0.5152 1.5158, 0.0 -0.712 1.5158, 0.0764 -0.5152 1.5258, 0.0764 -0.712 1.5258, 0.1476 -0.5152 1.5553, 0.1476 -0.712 1.5553, 0.2088 -0.5152 1.6022, 0.2088 -0.712 1.6022, 0.2557 -0.5152 1.6634, 0.2557 -0.712 1.6634, 0.2852 -0.5152 1.7346, 0.2852 -0.712 1.7346, 0.0 -0.5152 1.811
            ]
        }
        coordIndex [
            0,1,2,-1,2,1,3,-1,2,3,4,-1,4,3,5,-1,4,5,6,-1,6,5,7,-1,6,7,8,-1,8,7,9,-1,8,9,10,-1,10,9,11,-1,10,11,12,-1,12,11,13,-1,12,13,14,-1,14,13,15,-1,14,15,16,-1,16,15,17,-1,16,17,18,-1,18,17,19,-1,18,19,20,-1,20,19,21,-1,20,21,22,-1,22,21,23,-1,22,23,24,-1,24,23,25,-1,24,25,26,-1,26,25,27,-1,26,27,28,-1,28,27,29,-1,28,29,30,-1,30,29,31,-1,30,31,32,-1,32,31,33,-1,32,33,34,-1,34,33,35,-1,34,35,36,-1,36,35,37,-1,36,37,38,-1,38,37,39,-1,38,39,40,-1,40,39,41,-1,40,41,42,-1,42,41,43,-1,42,43,44,-1,44,43,45,-1,44,45,46,-1,46,45,47,-1,46,47,0,-1,0,47,1,-1,44,46,48,-1,48,46,0,-1,48,0,2,-1,38,40,48,-1,48,40,42,-1,48,42,44,-1,32,34,48,-1,48,34,36,-1,48,36,38,-1,26,28,48,-1,48,28,30,-1,48,30,32,-1,20,22,48,-1,48,22,24,-1,48,24,26,-1,14,16,48,-1,48,16,18,-1,48,18,20,-1,8,10,48,-1,48,10,12,-1,48,12,14,-1,2,4,48,-1,48,4,6,-1,48,6,8,-1,
        ]
    }
}